<svg xmlns="http://www.w3.org/2000/svg" width="37" height="34"><path fill="#8D7C6D" d="M1.3 34h34.4c.7 0 1.3-.6 1.3-1.3v-29c0-.7-.6-1.3-1.3-1.3h-6.5V1.3c0-.7-.6-1.3-1.3-1.3-.7 0-1.3.6-1.3 1.3v1.1h-16V1.3C10.6.6 10 0 9.3 0S8 .6 8 1.3v1.1H1.3C.6 2.4 0 3 0 3.7v29c0 .7.6 1.3 1.3 1.3zM2.6 5H8v.7C8 6.4 8.6 7 9.3 7s1.3-.6 1.3-1.3V5h16v.7c0 .7.6 1.3 1.3 1.3.7 0 1.3-.6 1.3-1.3V5h5.2v3.4H2.6V5zm0 6h31.8v20.5H2.6V11zm25.3 5.9H9.1c-.7 0-1.3.6-1.3 1.3s.6 1.3 1.3 1.3h18.8c.7 0 1.3-.6 1.3-1.3s-.5-1.3-1.3-1.3zm-9.4 6.3H9.1c-.7 0-1.3.6-1.3 1.3s.6 1.3 1.3 1.3h9.4c.7 0 1.3-.6 1.3-1.3s-.6-1.3-1.3-1.3zm0 0"/></svg>