<svg xmlns="http://www.w3.org/2000/svg" width="350" height="95" xmlns:xlink="http://www.w3.org/1999/xlink"><path fill="#58585A" d="M43.2 9.2c-.9-1.8-2.1-3.3-3.5-4.4-1.5-1.1-3.2-1.9-5.2-2.4s-4.2-.7-6.5-.7c-1.8 0-3.6.2-5.6.5-1.9.4-3.7 1-5.2 1.9-1.6.9-2.9 2.1-3.9 3.7-1 1.5-1.5 3.4-1.5 5.8 0 2.3.5 4.2 1.6 5.6 1 1.4 2.4 2.5 4.1 3.4 1.7.9 3.6 1.5 5.7 2s4.3 1 6.5 1.5c2.4.6 4.7 1.2 6.8 1.8 2.1.6 4 1.4 5.6 2.3s2.9 2.2 3.8 3.8c.9 1.6 1.4 3.7 1.4 6.4 0 2.5-.5 4.6-1.6 6.3-1.1 1.7-2.5 3.2-4.2 4.3s-3.7 2-5.9 2.5-4.4.8-6.6.8c-2.9 0-5.7-.3-8.1-1-2.5-.7-4.6-1.7-6.4-3.2-1.8-1.5-3.2-3.4-4.2-5.7-1-2.3-1.5-5.1-1.4-8.4h1.4c0 3.1.5 5.7 1.4 7.9.9 2.1 2.2 3.9 3.9 5.2 1.7 1.4 3.6 2.3 5.9 2.9 2.3.6 4.8.9 7.6.9 2 0 4-.2 6-.7 2-.5 3.8-1.2 5.4-2.2s2.9-2.3 3.9-3.9 1.5-3.5 1.5-5.7c0-2.6-.6-4.7-1.7-6.2s-2.6-2.7-4.3-3.6c-1.8-.9-3.7-1.6-5.9-2-2.1-.5-4.2-.9-6.2-1.4l-6.2-1.5c-2.1-.5-3.9-1.3-5.6-2.2-1.7-.9-3-2.2-4-3.8-1-1.6-1.5-3.6-1.5-6.1 0-2.6.5-4.7 1.6-6.4 1.1-1.7 2.4-3.1 4.1-4.1 1.7-1 3.6-1.7 5.7-2.2C24 .5 26.1.2 28.2.2c2.6 0 4.9.3 7.1.8 2.1.6 4 1.4 5.6 2.7 1.6 1.2 2.9 2.8 3.9 4.8s1.5 4.5 1.7 7.3h-1.4c-.6-2.5-1-4.8-1.9-6.6zm45.7 42.5v1.4H54.3V1.5h34.3v1.4H55.8v22.6h30.9v1.4H55.8v24.7h33.1zm4.8 1.4h-1.6L113 1.5h1.9l20.4 51.7h-1.6l-6.8-17h-26.3l-6.9 16.9zM114 2.9h-.1l-12.7 31.8h25.2L114 2.9zm25.9 50.2h-1.4V1.5h1.4v24H176v-24h1.4v51.7H176V26.9h-36.2v26.2zm42.3 0h-1.6l20.9-51.7h1.9l20.4 51.7h-1.6l-6.8-17h-26.3l-6.9 17zm20.3-50.2h-.1l-12.7 31.8h25.2L202.5 2.9zm56.8-1.4l-19.7 51.7H238L217.9 1.5h1.4l19.5 49.8h.1l19-49.8h1.4zm37.2 50.2v1.4h-34.6V1.5h34.3v1.4h-32.9v22.6h30.9v1.4h-30.9v24.7h33.2zM303 1.5l35.3 49.9h.1V1.5h1.4v51.7h-2.2L302.4 3.3h-.1v49.9h-1.4V1.5h2.1zM107 67.6v2.3h.1c.3-.8.9-1.5 1.7-2 .8-.5 1.7-.8 2.7-.8 1 0 1.7.1 2.4.4.6.2 1.2.6 1.5 1 .4.4.7 1 .8 1.6.2.7.2 1.4.2 2.2v8.8h-1.7v-8.5c0-.6-.1-1.1-.2-1.6s-.3-.9-.6-1.3-.6-.7-1.1-.9c-.4-.2-1-.3-1.7-.3s-1.3.1-1.8.4c-.5.2-1 .6-1.3 1-.4.4-.6.9-.8 1.5-.2.6-.3 1.2-.3 1.9v7.9h-1.7V67.6h1.8zm39.2.2c.8.4 1.5.9 2 1.6s1 1.4 1.2 2.3c.3.9.4 1.8.4 2.8 0 1-.1 1.9-.4 2.8-.3.9-.7 1.6-1.2 2.3-.5.7-1.2 1.2-2 1.5-.8.4-1.7.6-2.8.6-1 0-2-.2-2.8-.6-.8-.4-1.5-.9-2-1.5s-1-1.4-1.2-2.3c-.3-.9-.4-1.8-.4-2.8 0-1 .1-1.9.4-2.8.3-.9.7-1.6 1.2-2.3.5-.7 1.2-1.2 2-1.6.8-.4 1.7-.6 2.8-.6 1 0 2 .2 2.8.6zm-4.9 1.3c-.6.3-1.1.8-1.5 1.3-.4.5-.7 1.2-.9 1.9s-.3 1.4-.3 2.1.1 1.4.3 2.1c.2.7.5 1.3.9 1.9.4.5.9 1 1.5 1.3.6.3 1.3.5 2.1.5s1.5-.2 2.1-.5c.6-.3 1.1-.8 1.5-1.3.4-.5.7-1.2.9-1.9.2-.7.3-1.4.3-2.1s-.1-1.4-.3-2.1c-.2-.7-.5-1.3-.9-1.9-.4-.5-.9-1-1.5-1.3s-1.3-.5-2.1-.5-1.5.1-2.1.5zm37.7-1.3c.8.4 1.5.9 2 1.6.5.7 1 1.4 1.2 2.3.3.9.4 1.8.4 2.8 0 1-.1 1.9-.4 2.8-.3.9-.7 1.6-1.2 2.3-.5.7-1.2 1.2-2 1.5-.8.4-1.7.6-2.8.6s-2-.2-2.8-.6c-.8-.4-1.5-.9-2-1.5s-1-1.4-1.2-2.3c-.3-.9-.4-1.8-.4-2.8 0-1 .1-1.9.4-2.8.3-.9.7-1.6 1.2-2.3s1.2-1.2 2-1.6c.8-.4 1.7-.6 2.8-.6s2 .2 2.8.6zm-4.9 1.3c-.6.3-1.1.8-1.5 1.3-.4.5-.7 1.2-.9 1.9-.2.7-.3 1.4-.3 2.1s.1 1.4.3 2.1c.2.7.5 1.3.9 1.9.4.5.9 1 1.5 1.3.6.3 1.3.5 2.1.5s1.5-.2 2.1-.5c.6-.3 1.1-.8 1.5-1.3.4-.5.7-1.2.9-1.9.2-.7.3-1.4.3-2.1s-.1-1.4-.3-2.1c-.2-.7-.5-1.3-.9-1.9-.4-.5-.9-1-1.5-1.3s-1.3-.5-2.1-.5-1.5.1-2.1.5zm37 1.1c-.2-.4-.5-.7-.8-.9-.3-.2-.7-.4-1.1-.5-.4-.1-.9-.2-1.3-.2s-.7 0-1.1.1c-.4.1-.7.2-1 .4-.3.2-.6.4-.8.7s-.3.7-.3 1.1c0 .4.1.7.3.9.2.3.4.5.7.6.3.2.6.3.9.4l.9.3 2.2.5c.5.1.9.2 1.4.4s.9.4 1.2.7c.4.3.7.7.9 1.1.2.4.3 1 .3 1.6 0 .7-.2 1.4-.5 1.9s-.8.9-1.3 1.3c-.5.3-1.1.6-1.8.7-.7.1-1.3.2-1.9.2-1.6 0-2.9-.4-3.9-1.1-1-.8-1.6-2-1.7-3.6h1.7c.1 1.1.5 2 1.2 2.5.7.6 1.7.9 2.8.9.4 0 .8 0 1.3-.1.4-.1.8-.2 1.2-.4.4-.2.7-.5.9-.8.2-.3.4-.7.4-1.2 0-.4-.1-.7-.3-1s-.4-.5-.7-.7c-.3-.2-.6-.3-1-.5l-1.1-.3-2.1-.5c-.5-.1-1-.3-1.5-.5s-.9-.4-1.2-.7c-.3-.3-.6-.6-.8-1-.2-.4-.3-.9-.3-1.5 0-.7.2-1.3.5-1.8s.7-.9 1.2-1.2c.5-.3 1-.5 1.6-.7s1.2-.2 1.8-.2c.7 0 1.3.1 1.9.3.6.2 1.1.4 1.6.8.4.4.8.8 1.1 1.4s.4 1.2.4 1.9h-1.7c.1-.5 0-.9-.2-1.3zm23.4-.5c.3-.6.7-1.1 1.1-1.4.5-.4 1-.6 1.7-.8.7-.2 1.4-.3 2.2-.3.6 0 1.2.1 1.8.2.6.1 1.1.3 1.6.6s.9.8 1.2 1.3c.3.6.4 1.3.4 2.2v7.2c0 .7.3 1 1 1 .2 0 .4 0 .5-.1V81c-.2 0-.4.1-.5.1h-.6c-.4 0-.8-.1-1-.2-.3-.1-.5-.3-.6-.5-.1-.2-.2-.5-.3-.8 0-.3-.1-.6-.1-1h-.1l-.9 1.2c-.3.3-.6.6-1 .9-.4.2-.8.4-1.3.5-.5.1-1.1.2-1.7.2-.6 0-1.2-.1-1.8-.2-.6-.1-1-.4-1.4-.7-.4-.3-.7-.7-1-1.2-.2-.5-.4-1.1-.4-1.8 0-.9.2-1.7.6-2.2.4-.5 1-.9 1.7-1.2.7-.3 1.5-.5 2.3-.6.9-.1 1.8-.2 2.6-.3.4 0 .7-.1.9-.1.3-.1.5-.1.7-.3.2-.1.3-.3.4-.5.1-.2.1-.5.1-.9 0-.6-.1-1-.3-1.4-.2-.4-.4-.6-.8-.9-.3-.2-.7-.4-1.1-.4-.4-.1-.9-.1-1.4-.1-1.1 0-1.9.3-2.6.8s-1 1.3-1.1 2.4H234c.1-.9.2-1.5.5-2.1zm8.3 4c-.1.2-.3.3-.6.4-.3.1-.6.2-.8.2-.7.1-1.4.2-2.2.3s-1.4.2-2 .4-1.1.5-1.5.8c-.4.4-.6.9-.6 1.5 0 .4.1.8.3 1.1s.4.6.7.8c.3.2.6.4 1 .5.4.1.7.2 1.1.2.6 0 1.2-.1 1.8-.3.6-.2 1.1-.5 1.5-.8.4-.4.8-.8 1-1.3.3-.5.4-1.1.4-1.8l-.1-2z"/><defs><path id="a" d="M203.9 90.8l-85.2-1.1c-44-.1-87 .1-118.7 4.5 46-1.7 96.5-1 146.3-.2 76.2 1.2 150.5 2.3 203.7-5.4-49 2.1-108.4 4-146.1 2.2"/></defs><clipPath id="b"><use xlink:href="#a" overflow="visible"/></clipPath><linearGradient id="c" x1="45.913" x2="50.047" y1="134.447" y2="134.447" gradientUnits="userSpaceOnUse" gradientTransform="matrix(71.723 -33.445 -33.445 -71.723 1231.357 11339.535)"><stop offset="0" stop-color="#0076A3"/><stop offset="1" stop-color="#939598"/></linearGradient><path fill="url(#c)" d="M-8 89.9l295.5-51 70.5 56-295.5 51z" clip-path="url(#b)"/></svg>